<?xml version='1.0' encoding='utf-8'?>
<svg xmlns="http://www.w3.org/2000/svg" viewBox="0 0 82 36"><g><path d="M 0 36 L 0 0 L 82 0 L 82 36 Z" fill="transparent" /><path d="M 23.703 23.491 C 21.141 26.029 18.474 27.015 15.129 27.015 C 8.441 27.015 2.999 21.621 2.999 14.993 C 2.999 8.365 8.441 2.972 15.129 2.972 C 20.782 2.972 25.546 6.825 26.885 12.022 L 29.959 12.022 C 28.565 5.172 22.445 0 15.129 0 C 6.788 0 0 6.728 0 14.993 C 0 23.259 6.788 29.987 15.129 29.987 C 19.3 29.987 23.082 28.304 25.822 25.591 L 30.257 29.987 L 30.257 16.748" fill="#f44e27" /><path d="M 28.462 14.993 L 24.72 14.993 L 21.721 14.993 L 15.129 14.993 L 19.787 19.61 C 18.594 20.793 16.944 21.527 15.129 21.527 C 11.495 21.527 8.536 18.595 8.536 14.993 C 8.536 13.181 9.285 11.539 10.493 10.354 L 8.378 8.248 C 6.625 9.971 5.538 12.358 5.538 14.993 C 5.538 20.235 9.84 24.499 15.129 24.499 C 17.773 24.499 19.496 24.185 21.907 21.711" fill="#f44e27" /><path d="M 47.214 33.511 L 43.992 36 L 43.992 27.682 L 43.934 27.655 C 43.279 29.208 42.224 29.773 39.858 29.773 C 38.033 29.773 36.722 29.32 35.981 28.446 C 35.069 27.343 34.783 26.017 34.783 22.739 C 34.783 19.63 35.124 18.304 36.179 17.343 C 36.978 16.609 38.176 16.24 39.828 16.24 C 42.194 16.24 43.163 16.721 43.934 18.388 L 44.047 18.361 L 43.99 16.412 L 47.212 16.412 L 47.212 33.516 Z M 38.063 22.794 C 38.063 26.637 38.462 27.259 40.943 27.259 C 43.425 27.259 43.937 26.467 43.937 23.331 C 43.937 19.461 43.48 18.754 40.971 18.754 C 38.462 18.754 38.063 19.461 38.063 22.794 Z" fill="#f44e27" /><path d="M 49.015 20.223 C 49.015 18.866 49.158 18.216 49.585 17.624 C 50.298 16.606 51.695 16.24 54.661 16.24 C 59.337 16.24 60.706 17.313 60.706 20.987 L 60.706 29.603 L 57.483 29.603 L 57.627 27.794 L 57.541 27.794 C 56.828 29.32 55.859 29.773 53.322 29.773 C 49.758 29.773 48.475 28.7 48.475 25.676 C 48.475 22.652 49.816 21.552 53.38 21.552 C 55.974 21.552 56.886 21.89 57.428 23.077 L 57.486 23.077 L 57.486 20.93 C 57.486 18.839 56.944 18.331 54.776 18.331 C 52.752 18.331 52.325 18.642 52.267 20.225 L 49.018 20.225 Z M 51.753 25.507 C 51.753 27.144 52.265 27.513 54.548 27.513 C 56.831 27.513 57.514 27.06 57.514 25.591 C 57.514 24.123 56.858 23.67 54.548 23.67 C 52.237 23.67 51.753 24.038 51.753 25.507 Z" fill="#f44e27" /><path d="M 65.892 29.603 L 62.67 29.603 L 62.67 13.246 L 65.892 10.757 Z" fill="#f44e27" /><path d="M 77.068 18.809 L 71.992 18.809 L 71.992 25.419 C 71.992 26.945 72.248 27.314 73.361 27.314 C 74.616 27.314 74.928 26.861 74.928 25.054 C 74.928 24.942 74.928 24.8 74.9 24.516 L 77.61 24.516 L 77.61 25.28 C 77.61 27.117 77.439 27.794 76.897 28.531 C 76.214 29.407 75.101 29.773 73.047 29.773 C 70.822 29.773 69.712 29.292 69.111 28.135 C 68.825 27.597 68.77 27.147 68.77 25.875 L 68.77 18.811 L 67.032 18.811 L 67.032 16.41 L 68.77 16.41 L 68.77 13.47 L 71.992 13.47 L 71.992 16.41 L 77.068 16.41 L 77.068 18.811 Z" fill="#f44e27" /><path d="M 82 13.468 L 78.778 13.468 L 78.778 10.755 L 82 10.755 Z M 82 29.601 L 78.778 29.601 L 78.778 16.405 L 82 16.405 Z" fill="#f44e27" /></g></svg>

